<svg xmlns="http://www.w3.org/2000/svg" viewBox="0 0 438.13 103.74"><defs><style>.cls-1{fill:#73b5bf;}.cls-2{fill:#f5c51e;}.cls-3{fill:#db5738;}.cls-4{fill:#231815;}</style></defs><title>자산 11</title><g id="레이어_2" data-name="레이어 2"><g id="레이어_1-2" data-name="레이어 1"><path class="cls-1" d="M150.53,14.26,200.68,51a3.48,3.48,0,0,1,.74,4.86,3.41,3.41,0,0,1-2.32,1.39,12.52,12.52,0,0,1-1.62,0H163.92V79h15.61A3.48,3.48,0,0,1,183,82.51v21.23H207.6V53.83a3.49,3.49,0,0,1,3.49-3.49h27.55L170,0Z"/><path class="cls-2" d="M59.12,79h15.6V57.31H40a3.49,3.49,0,0,1-1.86-6.43l50-36.62L68.66,0,0,50.34H27.55A3.49,3.49,0,0,1,31,53.83v49.91H55.63V82.51A3.48,3.48,0,0,1,59.12,79"/><polygon class="cls-1" points="137.33 50.34 119.32 37.14 101.32 50.34 109.77 50.34 128.87 50.34 137.33 50.34"/><polygon class="cls-3" points="99.87 14.26 119.32 28.52 138.77 14.26 119.32 0 99.87 14.26"/><path class="cls-3" d="M81.7,103.74h24.59V82.51A3.48,3.48,0,0,1,109.77,79h19.1a3.48,3.48,0,0,1,3.48,3.48v21.23H157V53.83a3.48,3.48,0,0,1,3.48-3.49H188L144.65,18.57,125.2,32.83,150,51a3.48,3.48,0,0,1,.75,4.86,3.54,3.54,0,0,1-2.41,1.41,7.49,7.49,0,0,1-.82,0H90.68a3.49,3.49,0,0,1-1.86-6.43l24.62-18.05L94,18.57,50.66,50.34H78.21a3.49,3.49,0,0,1,3.49,3.49v49.91Z"/><polygon class="cls-4" points="308.54 27.3 299.4 27.3 299.4 64.7 308.54 64.7 308.54 49.01 317.98 49.01 317.98 41.22 308.54 41.22 308.54 27.3"/><polygon class="cls-4" points="267.2 74.34 299.4 74.34 299.4 91.19 308.54 91.19 308.54 66.56 267.2 66.56 267.2 74.34"/><path class="cls-4" d="M280.73,60.66c2.17-.12,4.31-.29,6.37-.51s4-.49,5.93-.79,3.59-.63,5.09-1l.3-.07V50.8l-.45.07c-3.18.5-6.65,1-10.32,1.5a86,86,0,0,1-11.43.74h-5.78V37.73h21.87V30.09H261.16V60.83h13.16c2.08,0,4.24-.06,6.41-.17"/><path class="cls-4" d="M347.12,67.31A78.16,78.16,0,0,1,337,68h-6.19V57.77h17.46V50H330.82V40h18.95V32.26H321.61V75.77H335a106,106,0,0,0,12.1-.68A85.14,85.14,0,0,0,358.64,73l.3-.07V65.25l-.48.09c-4.11.86-7.93,1.52-11.34,2"/><polygon class="cls-4" points="362.29 48.42 352.38 48.42 352.38 56.34 362.29 56.34 362.29 91.05 371.5 91.05 371.5 27.3 362.29 27.3 362.29 48.42"/><rect class="cls-4" x="393.2" y="26.55" width="28.7" height="6.97"/><rect class="cls-4" x="383.14" y="35.25" width="48.81" height="6.56"/><path class="cls-4" d="M386.88,90.1H429V70.84H386.88Zm33-7.1H396V77.81h23.94Z"/><path class="cls-4" d="M412.32,61.33V58.9c4.93-.38,8.63-1.28,11-2.67s3.79-3.33,3.79-5.54c0-2.51-1.67-4.5-5-5.91s-8.12-2.06-14.66-2.06-11.41.69-14.62,2.06-5,3.4-5,5.91c0,2.21,1.31,4.08,3.9,5.55s6.18,2.28,11.11,2.66v2.43H377.85v7h60.28v-7ZM397.76,50.21a2.91,2.91,0,0,1,1.37-.68,19.39,19.39,0,0,1,3.13-.56,49.19,49.19,0,0,1,5.25-.23,48.35,48.35,0,0,1,5.19.23,20.08,20.08,0,0,1,3.16.56,3.07,3.07,0,0,1,1.45.69,1,1,0,0,1,.34.6,1,1,0,0,1-.34.6,3,3,0,0,1-1.45.7,21.33,21.33,0,0,1-3.16.56,48.09,48.09,0,0,1-5.19.23,48.93,48.93,0,0,1-5.25-.23,20.57,20.57,0,0,1-3.13-.56,2.91,2.91,0,0,1-1.37-.68,1.09,1.09,0,0,1-.31-.62,1.06,1.06,0,0,1,.31-.61"/></g></g></svg>